<svg width="20" height="20" viewBox="0 0 20 20" fill="none" xmlns="http://www.w3.org/2000/svg">
<path d="M19.9535 13.6948C20.1802 13.1541 19.5325 12.6946 18.9885 12.9345C17.905 13.4106 16.7306 13.6559 15.5431 13.6542C10.8931 13.6542 7.12393 9.96087 7.12393 5.4046C7.12393 3.8099 7.5857 2.32117 8.38488 1.05963C8.69965 0.562751 8.32077 -0.127036 7.74371 0.0201857C3.28802 1.15672 0 5.12539 0 9.84665C0 15.4544 4.63898 20 10.3621 20C14.6948 20 18.4063 17.3944 19.9535 13.6948Z" fill="#2FC9D2"/>
<path d="M14.0122 0.113912C13.4234 -0.278687 12.7211 0.422934 13.1138 1.01247L13.814 2.06263C14.0979 2.48833 14.2493 2.98854 14.2493 3.5002C14.2493 4.01185 14.0979 4.51205 13.814 4.93776L13.1138 5.98791C12.7211 6.5768 13.4234 7.27907 14.0129 6.88583L15.0623 6.18616C15.4881 5.90232 15.9882 5.75085 16.4999 5.75085C17.0115 5.75085 17.5116 5.90232 17.9374 6.18616L18.9875 6.88583C19.5764 7.27907 20.2786 6.5768 19.8854 5.98727L19.1857 4.93776C18.9019 4.51205 18.7504 4.01185 18.7504 3.5002C18.7504 2.98854 18.9019 2.48833 19.1857 2.06263L19.886 1.01247C20.2786 0.423579 19.5764 -0.278687 18.9869 0.114557L17.9374 0.814234C17.5116 1.09807 17.0115 1.24953 16.4999 1.24953C15.9882 1.24953 15.4881 1.09807 15.0623 0.814234L14.0122 0.113912Z" fill="#2FC9D2"/>
</svg>
