<svg width="17" height="17" viewBox="0 0 17 17" fill="none" xmlns="http://www.w3.org/2000/svg">
<path fill-rule="evenodd" clip-rule="evenodd" d="M5.17255 7.23142L4.11489 6.94802L4.62464 5.04561L5.68229 5.32901C5.91177 4.89347 6.21546 4.49295 6.58775 4.14839L6.04047 3.20046L7.74612 2.21571L8.2934 3.16363C8.77795 3.01349 9.27666 2.95075 9.76858 2.96979L10.052 1.91214L11.9544 2.42188L11.671 3.47954C12.1065 3.70901 12.507 4.0127 12.8516 4.385L13.7995 3.83771L14.7843 5.54336L13.8364 6.09065C13.9865 6.57519 14.0492 7.0739 14.0302 7.56583L15.0879 7.84923L14.5781 9.75163L13.5205 9.46823C13.291 9.90377 12.9873 10.3043 12.615 10.6489L13.1623 11.5968L11.4566 12.5815L10.9094 11.6336C10.4248 11.7837 9.9261 11.8465 9.43417 11.8275L9.15077 12.8851L7.24837 12.3754L7.53177 11.3177C7.09622 11.0882 6.6957 10.7845 6.35114 10.4122L5.40322 10.9595L4.41846 9.25388L5.36638 8.7066C5.21625 8.22205 5.15351 7.72334 5.17255 7.23142ZM10.3399 8.67786C11.0464 8.26996 11.2885 7.36656 10.8806 6.66005C10.4727 5.95355 9.56931 5.71149 8.86281 6.11938C8.15631 6.52728 7.91424 7.43069 8.32214 8.13719C8.73004 8.84369 9.63344 9.08576 10.3399 8.67786Z" fill="#FFAF40"/>
<path fill-rule="evenodd" clip-rule="evenodd" d="M0 15.0311C0 14.4869 0.439981 13.9951 0.975966 13.9334L4.18522 13.5638L7.39447 13.9334C7.93348 13.9954 8.37044 14.4869 8.37044 15.0311V16.7538H0V15.0311Z" fill="#BD7575"/>
<path fill-rule="evenodd" clip-rule="evenodd" d="M2.70809 12.4003C1.96701 11.6997 1.47714 10.565 1.47714 9.61432C1.47714 8.11869 2.68959 6.90624 4.18522 6.90624C5.68086 6.90624 6.89331 8.11869 6.89331 9.61432C6.89331 10.565 6.40344 11.6997 5.66236 12.4003V14.0457C5.66236 14.0457 4.661 14.4024 4.18522 14.4024C3.70944 14.4024 2.70809 14.0457 2.70809 14.0457V12.4003Z" fill="#FFDD95"/>
<path d="M1.96952 11.5838C2.37742 11.5838 2.70809 11.2532 2.70809 10.8453C2.70809 10.4374 2.37742 10.1067 1.96952 10.1067C1.56163 10.1067 1.23096 10.4374 1.23096 10.8453C1.23096 11.2532 1.56163 11.5838 1.96952 11.5838Z" fill="#FFDD95"/>
<path d="M6.40092 11.5838C6.80882 11.5838 7.13949 11.2532 7.13949 10.8453C7.13949 10.4374 6.80882 10.1067 6.40092 10.1067C5.99302 10.1067 5.66235 10.4374 5.66235 10.8453C5.66235 11.2532 5.99302 11.5838 6.40092 11.5838Z" fill="#FFDD95"/>
</svg>
