<svg width="31" height="24" viewBox="0 0 31 24" fill="none" xmlns="http://www.w3.org/2000/svg">
<path d="M1.92619 9.63093C1.41533 9.63093 0.925397 9.83387 0.564167 10.1951C0.202937 10.5563 0 11.0463 0 11.5571C0 12.068 0.202937 12.5579 0.564167 12.9191C0.925397 13.2804 1.41533 13.4833 1.92619 13.4833V9.63093ZM28.8928 13.4833C29.4036 13.4833 29.8936 13.2804 30.2548 12.9191C30.616 12.5579 30.819 12.068 30.819 11.5571C30.819 11.0463 30.616 10.5563 30.2548 10.1951C29.8936 9.83387 29.4036 9.63093 28.8928 9.63093V13.4833ZM1.92619 0C1.41533 0 0.925397 0.202937 0.564167 0.564167C0.202937 0.925397 0 1.41533 0 1.92619C0 2.43704 0.202937 2.92698 0.564167 3.2882C0.925397 3.64943 1.41533 3.85237 1.92619 3.85237V0ZM28.8928 3.85237C29.4036 3.85237 29.8936 3.64943 30.2548 3.2882C30.616 2.92698 30.819 2.43704 30.819 1.92619C30.819 1.41533 30.616 0.925397 30.2548 0.564167C29.8936 0.202937 29.4036 0 28.8928 0V3.85237ZM1.92619 19.2619C1.41533 19.2619 0.925397 19.4648 0.564167 19.826C0.202937 20.1873 0 20.6772 0 21.188C0 21.6989 0.202937 22.1888 0.564167 22.5501C0.925397 22.9113 1.41533 23.1142 1.92619 23.1142V19.2619ZM28.8928 23.1142C29.4036 23.1142 29.8936 22.9113 30.2548 22.5501C30.616 22.1888 30.819 21.6989 30.819 21.188C30.819 20.6772 30.616 20.1873 30.2548 19.826C29.8936 19.4648 29.4036 19.2619 28.8928 19.2619V23.1142ZM1.92619 13.4833H28.8928V9.63093H1.92619V13.4833ZM1.92619 3.85237H28.8928V0H1.92619V3.85237ZM1.92619 23.1142H28.8928V19.2619H1.92619V23.1142Z" fill="white"/>
</svg>
