<svg width="15" height="15" viewBox="0 0 15 15" fill="none" xmlns="http://www.w3.org/2000/svg">
<path d="M0 13.4615V4.23077H15V13.4615C15 14.3077 14.2895 15 13.4211 15H1.57895C0.710526 15 0 14.3077 0 13.4615Z" fill="#CFD8DC"/>
<path d="M15 2.6923V4.99999H0V2.6923C0 1.84615 0.710526 1.15384 1.57895 1.15384H13.4211C14.2895 1.15384 15 1.84615 15 2.6923Z" fill="#F44336"/>
<path d="M11.0526 3.84614C11.7066 3.84614 12.2368 3.32955 12.2368 2.6923C12.2368 2.05505 11.7066 1.53845 11.0526 1.53845C10.3986 1.53845 9.86841 2.05505 9.86841 2.6923C9.86841 3.32955 10.3986 3.84614 11.0526 3.84614Z" fill="#B71C1C"/>
<path d="M3.94739 3.84614C4.60142 3.84614 5.1316 3.32955 5.1316 2.6923C5.1316 2.05505 4.60142 1.53845 3.94739 1.53845C3.29337 1.53845 2.76318 2.05505 2.76318 2.6923C2.76318 3.32955 3.29337 3.84614 3.94739 3.84614Z" fill="#B71C1C"/>
<path d="M11.0527 0C10.6184 0 10.2632 0.346154 10.2632 0.769231V2.69231C10.2632 3.11539 10.6184 3.46154 11.0527 3.46154C11.4869 3.46154 11.8421 3.11539 11.8421 2.69231V0.769231C11.8421 0.346154 11.4869 0 11.0527 0Z" fill="#B0BEC5"/>
<path d="M3.94737 0C3.51316 0 3.1579 0.346154 3.1579 0.769231V2.69231C3.1579 3.11539 3.51316 3.46154 3.94737 3.46154C4.38158 3.46154 4.73685 3.11539 4.73685 2.69231V0.769231C4.73685 0.346154 4.38158 0 3.94737 0Z" fill="#B0BEC5"/>
<path d="M3.1579 6.53845H4.73685V8.07691H3.1579V6.53845Z" fill="#90A4AE"/>
<path d="M5.52631 6.53845H7.10525V8.07691H5.52631V6.53845Z" fill="#90A4AE"/>
<path d="M7.89474 6.53845H9.47369V8.07691H7.89474V6.53845Z" fill="#90A4AE"/>
<path d="M10.2632 6.53845H11.8421V8.07691H10.2632V6.53845Z" fill="#90A4AE"/>
<path d="M3.1579 8.84616H4.73685V10.3846H3.1579V8.84616Z" fill="#90A4AE"/>
<path d="M5.52631 8.84616H7.10525V10.3846H5.52631V8.84616Z" fill="#90A4AE"/>
<path d="M7.89474 8.84616H9.47369V10.3846H7.89474V8.84616Z" fill="#90A4AE"/>
<path d="M10.2632 8.84616H11.8421V10.3846H10.2632V8.84616Z" fill="#90A4AE"/>
<path d="M3.1579 11.1538H4.73685V12.6923H3.1579V11.1538Z" fill="#90A4AE"/>
<path d="M5.52631 11.1538H7.10525V12.6923H5.52631V11.1538Z" fill="#90A4AE"/>
<path d="M7.89474 11.1538H9.47369V12.6923H7.89474V11.1538Z" fill="#90A4AE"/>
<path d="M10.2632 11.1538H11.8421V12.6923H10.2632V11.1538Z" fill="#90A4AE"/>
</svg>
