<svg width="26" height="26" viewBox="0 0 26 26" fill="none" xmlns="http://www.w3.org/2000/svg">
<path d="M25.0714 21.01C23.4729 20.6472 22.2857 19.3875 22.2857 17.875V9.75C22.2857 6.09537 19.5274 3.00544 15.7333 1.98372C15.49 0.855156 14.3613 0 13 0C11.6387 0 10.51 0.855156 10.2668 1.98372C6.47261 3.00544 3.71429 6.09537 3.71429 9.75V17.875C3.71429 19.3875 2.52711 20.6472 0.928571 21.01C0.928571 21.01 0 21.2392 0 21.9375C0 22.3864 0.415536 22.75 0.928571 22.75H9.28571C9.28571 24.5448 10.9488 26 13 26C15.0512 26 16.7143 24.5448 16.7143 22.75H25.0714C25.5845 22.75 26 22.3864 26 21.9375C26 21.2266 25.0714 21.01 25.0714 21.01ZM13 24.375C11.9744 24.375 11.1429 23.6474 11.1429 22.75H14.8571C14.8571 23.6474 14.0256 24.375 13 24.375ZM4.14236 21.125C5.03936 20.2544 5.57143 19.108 5.57143 17.875V9.75C5.57143 6.91031 7.66721 4.49556 10.5732 3.61359C11.0519 3.46775 11.5542 3.36781 12.0714 3.30891V2.4375C12.0714 1.98859 12.487 1.625 13 1.625C13.513 1.625 13.9286 1.98859 13.9286 2.4375V3.30891C14.4453 3.36781 14.9477 3.46775 15.4268 3.61359C18.3328 4.49556 20.4286 6.91031 20.4286 9.75V17.875C20.4286 19.108 20.9606 20.2552 21.8558 21.125H4.14236Z" fill="#394240"/>
<path d="M13 24.375C11.9744 24.375 11.1428 23.6474 11.1428 22.75H14.8571C14.8571 23.6474 14.0256 24.375 13 24.375Z" fill="#B4CCB9"/>
<path d="M4.14233 21.125C5.03933 20.2544 5.57141 19.108 5.57141 17.875V9.75C5.57141 6.91031 7.66719 4.49556 10.5732 3.61359C11.0518 3.46775 11.5542 3.36781 12.0714 3.30891V2.4375C12.0714 1.98859 12.4869 1.625 13 1.625C13.513 1.625 13.9285 1.98859 13.9285 2.4375V3.30891C14.4453 3.36781 14.9477 3.46775 15.4268 3.61359C18.3328 4.49556 20.4285 6.91031 20.4285 9.75V17.875C20.4285 19.108 20.9606 20.2552 21.8558 21.125H4.14233Z" fill="#F76D57"/>
</svg>
