<svg width="20" height="21" viewBox="0 0 20 21" fill="none" xmlns="http://www.w3.org/2000/svg">
<path d="M9.99949 4.46585C9.74581 4.46585 9.50251 4.3644 9.32313 4.1838C9.14374 4.00321 9.04297 3.75827 9.04297 3.50287V1.40182C9.04297 1.14642 9.14374 0.901487 9.32313 0.720893C9.50251 0.540299 9.74581 0.438843 9.99949 0.438843C10.2532 0.438843 10.4965 0.540299 10.6759 0.720893C10.8552 0.901487 10.956 1.14642 10.956 1.40182V3.50287C10.956 3.75827 10.8552 4.00321 10.6759 4.1838C10.4965 4.3644 10.2532 4.46585 9.99949 4.46585Z" fill="#EBB126"/>
<path d="M9.99949 20.5739C9.74581 20.5739 9.50251 20.4724 9.32313 20.2918C9.14374 20.1112 9.04297 19.8663 9.04297 19.6109V17.5099C9.04297 17.2545 9.14374 17.0095 9.32313 16.8289C9.50251 16.6483 9.74581 16.5469 9.99949 16.5469C10.2532 16.5469 10.4965 16.6483 10.6759 16.8289C10.8552 17.0095 10.956 17.2545 10.956 17.5099V19.6109C10.956 19.8663 10.8552 20.1112 10.6759 20.2918C10.4965 20.4724 10.2532 20.5739 9.99949 20.5739Z" fill="#EBB126"/>
<path d="M14.9193 6.51701C14.7302 6.51698 14.5453 6.46051 14.388 6.35472C14.2307 6.24893 14.1082 6.09858 14.0358 5.92267C13.9633 5.74676 13.9444 5.55319 13.9812 5.36642C14.0181 5.17965 14.1091 5.00807 14.2428 4.87337L15.7184 3.38776C15.8986 3.21109 16.1406 3.11297 16.3921 3.11464C16.6436 3.1163 16.8844 3.21763 17.0622 3.39667C17.24 3.57571 17.3407 3.81806 17.3423 4.07126C17.344 4.32445 17.2465 4.56812 17.071 4.7495L15.5954 6.23512C15.5067 6.32461 15.4013 6.39558 15.2853 6.44396C15.1692 6.49233 15.0449 6.51716 14.9193 6.51701Z" fill="#EBB126"/>
<path d="M3.60484 17.9073C3.41565 17.9073 3.23072 17.8508 3.07343 17.7449C2.91613 17.6391 2.79355 17.4887 2.72118 17.3127C2.64881 17.1367 2.62991 16.9431 2.66686 16.7563C2.7038 16.5695 2.79495 16.3979 2.92876 16.2632L4.40441 14.7776C4.49279 14.6863 4.59832 14.6135 4.71487 14.5635C4.83141 14.5136 4.95665 14.4874 5.08332 14.4866C5.20999 14.4857 5.33557 14.5102 5.45276 14.5586C5.56995 14.6071 5.67642 14.6784 5.76599 14.7686C5.85556 14.8588 5.92645 14.966 5.97454 15.0839C6.02263 15.2019 6.04696 15.3283 6.04613 15.4559C6.04529 15.5834 6.01931 15.7095 5.96968 15.8268C5.92005 15.9441 5.84776 16.0504 5.75702 16.1394L4.28137 17.625C4.19263 17.7146 4.08719 17.7857 3.97109 17.8341C3.85499 17.8826 3.73052 17.9074 3.60484 17.9073Z" fill="#EBB126"/>
<path d="M19.0435 11.4693H16.9565C16.7028 11.4693 16.4595 11.3679 16.2802 11.1873C16.1008 11.0067 16 10.7618 16 10.5064C16 10.251 16.1008 10.006 16.2802 9.82543C16.4595 9.64484 16.7028 9.54338 16.9565 9.54338H19.0435C19.2972 9.54338 19.5405 9.64484 19.7198 9.82543C19.8992 10.006 20 10.251 20 10.5064C20 10.7618 19.8992 11.0067 19.7198 11.1873C19.5405 11.3679 19.2972 11.4693 19.0435 11.4693Z" fill="#EBB126"/>
<path d="M3.04348 11.4693H0.956523C0.702837 11.4693 0.459542 11.3679 0.280159 11.1873C0.100776 11.0067 0 10.7618 0 10.5064C0 10.251 0.100776 10.006 0.280159 9.82543C0.459542 9.64484 0.702837 9.54338 0.956523 9.54338H3.04348C3.29717 9.54338 3.54046 9.64484 3.71985 9.82543C3.89923 10.006 4.00001 10.251 4.00001 10.5064C4.00001 10.7618 3.89923 11.0067 3.71985 11.1873C3.54046 11.3679 3.29717 11.4693 3.04348 11.4693Z" fill="#EBB126"/>
<path d="M16.3942 17.9073C16.2685 17.9074 16.144 17.8826 16.0279 17.8341C15.9118 17.7857 15.8064 17.7146 15.7177 17.625L14.242 16.1394C14.0665 15.958 13.9691 15.7143 13.9707 15.4611C13.9724 15.2079 14.073 14.9656 14.2509 14.7865C14.4287 14.6075 14.6694 14.5062 14.9209 14.5045C15.1724 14.5028 15.4145 14.601 15.5946 14.7776L17.0703 16.2632C17.2041 16.3979 17.2952 16.5695 17.3322 16.7563C17.3691 16.9431 17.3502 17.1367 17.2778 17.3127C17.2055 17.4887 17.0829 17.6391 16.9256 17.7449C16.7683 17.8508 16.5834 17.9073 16.3942 17.9073Z" fill="#EBB126"/>
<path d="M5.08126 6.51701C4.95566 6.51725 4.83126 6.49247 4.71522 6.44409C4.59919 6.39571 4.49381 6.32469 4.40517 6.23512L2.92951 4.7495C2.75403 4.56812 2.65657 4.32445 2.65822 4.07126C2.65988 3.81806 2.76052 3.57571 2.93836 3.39667C3.1162 3.21763 3.35693 3.1163 3.60843 3.11464C3.85993 3.11297 4.10196 3.21109 4.28212 3.38776L5.75778 4.87337C5.89146 5.00807 5.98249 5.17965 6.01933 5.36642C6.05618 5.55319 6.0372 5.74676 5.9648 5.92267C5.89239 6.09858 5.76981 6.24893 5.61255 6.35472C5.45528 6.46051 5.27039 6.51698 5.08126 6.51701Z" fill="#EBB126"/>
<path d="M9.99924 14.9711C9.12213 14.9711 8.2647 14.7092 7.53541 14.2187C6.80611 13.7281 6.23769 13.0308 5.90203 12.2149C5.56637 11.3991 5.47855 10.5014 5.64967 9.63534C5.82079 8.76927 6.24316 7.97373 6.86337 7.34932C7.48359 6.72492 8.27379 6.2997 9.13406 6.12742C9.99432 5.95515 10.886 6.04357 11.6964 6.38149C12.5067 6.71942 13.1993 7.29167 13.6866 8.02589C14.1739 8.76011 14.434 9.62332 14.434 10.5064C14.4327 11.6901 13.965 12.8249 13.1336 13.6619C12.3022 14.4989 11.175 14.9697 9.99924 14.9711Z" fill="#EBB126"/>
</svg>
