<svg width="17" height="17" viewBox="0 0 17 17" fill="none" xmlns="http://www.w3.org/2000/svg">
<path d="M7.6188 16.7246C11.6745 16.7246 14.9622 13.4369 14.9622 9.3812C14.9622 5.32554 11.6745 2.03778 7.6188 2.03778C3.56315 2.03778 0.275391 5.32554 0.275391 9.3812C0.275391 13.4369 3.56315 16.7246 7.6188 16.7246Z" fill="#FF507D"/>
<path d="M14.8866 8.33403C14.8587 8.13876 14.8225 7.94635 14.7795 7.75636L7.56537 9.09233C7.40556 9.12188 7.30031 9.27508 7.32986 9.43452C7.35596 9.5762 7.47961 9.67491 7.61843 9.67491C7.63619 9.67491 7.65402 9.67348 7.67209 9.67003L14.8866 8.33403Z" fill="#D23C69"/>
<path d="M7.6188 14.9622C10.7011 14.9622 13.1998 12.4635 13.1998 9.38121C13.1998 6.29891 10.7011 3.80022 7.6188 3.80022C4.53651 3.80022 2.03781 6.29891 2.03781 9.38121C2.03781 12.4635 4.53651 14.9622 7.6188 14.9622Z" fill="white"/>
<path d="M13.1474 8.6561C13.1219 8.46 13.086 8.26756 13.0406 8.0784L7.56543 9.09236C7.40562 9.12191 7.30037 9.27511 7.32992 9.43455C7.35602 9.57623 7.47967 9.67494 7.61849 9.67494C7.63625 9.67494 7.65408 9.67351 7.67215 9.67006L13.1474 8.6561Z" fill="#E4EAF8"/>
<path d="M7.6188 13.1998C9.72773 13.1998 11.4374 11.4901 11.4374 9.3812C11.4374 7.27227 9.72773 5.56264 7.6188 5.56264C5.50986 5.56264 3.80023 7.27227 3.80023 9.3812C3.80023 11.4901 5.50986 13.1998 7.6188 13.1998Z" fill="#FF507D"/>
<path d="M11.4155 8.97682C11.3947 8.77906 11.3551 8.58731 11.3053 8.39975L7.5654 9.0923C7.40559 9.12185 7.30034 9.27505 7.32989 9.43449C7.35599 9.57617 7.47964 9.67488 7.61846 9.67488C7.63622 9.67488 7.65405 9.67346 7.67212 9.67L11.4155 8.97682Z" fill="#D23C69"/>
<path d="M7.6188 11.4374C8.75439 11.4374 9.67497 10.5168 9.67497 9.3812C9.67497 8.24561 8.75439 7.32503 7.6188 7.32503C6.4832 7.32503 5.56262 8.24561 5.56262 9.3812C5.56262 10.5168 6.4832 11.4374 7.6188 11.4374Z" fill="white"/>
<path d="M15.5497 0.27536V1.45029H16.7246L14.9622 3.21271H13.7873V2.03778L15.5497 0.27536Z" fill="#FF507D"/>
<path d="M13.7873 2.03778L13.7873 2.03782V3.21271L15.5497 1.45029V0.27536L13.7873 2.03778Z" fill="#D23C69"/>
<path d="M9.67088 9.29995C9.66294 9.09847 9.62688 8.90456 9.56506 8.72205L7.56543 9.09233C7.40562 9.12188 7.30037 9.27508 7.32992 9.43452C7.35602 9.5762 7.47967 9.67491 7.61849 9.67491C7.63625 9.67491 7.65408 9.67348 7.67215 9.67003L9.67088 9.29995Z" fill="#E4EAF8"/>
<path d="M10.9153 4.86889C10.9989 4.74192 10.9638 4.57112 10.8368 4.48745C9.88096 3.85772 8.76819 3.52483 7.6188 3.52483C4.38956 3.52483 1.76242 6.15196 1.76242 9.3812C1.76242 10.7264 2.22985 12.0402 3.07869 13.0807C3.13311 13.1474 3.21234 13.182 3.29226 13.182C3.35345 13.182 3.41504 13.1617 3.46614 13.12C3.58401 13.0239 3.60158 12.8504 3.50545 12.7326C2.7366 11.7901 2.31316 10.5999 2.31316 9.3812C2.31316 6.45567 4.69323 4.07557 7.6188 4.07557C8.66018 4.07557 9.66816 4.37702 10.5338 4.94735C10.6608 5.03102 10.8315 4.99589 10.9153 4.86889Z" fill="black"/>
<path d="M8.8777 5.48451C8.73297 5.43779 8.57774 5.51721 8.53106 5.66194C8.48434 5.80668 8.56377 5.9619 8.7085 6.00859C8.8956 6.06898 9.07908 6.14578 9.25383 6.23686C9.29447 6.25804 9.338 6.26807 9.38083 6.26807C9.48021 6.26807 9.57616 6.21408 9.6253 6.11988C9.6956 5.98498 9.64324 5.8187 9.50833 5.74841C9.30626 5.64318 9.09409 5.5544 8.8777 5.48451Z" fill="black"/>
<path d="M14.9622 3.4881C15.0353 3.4881 15.1053 3.45908 15.1569 3.40742L16.9193 1.64499C16.9981 1.56623 17.0217 1.4478 16.979 1.3449C16.9364 1.24197 16.836 1.1749 16.7246 1.1749H15.8251V0.275361C15.8251 0.163964 15.758 0.0635912 15.6551 0.0209583C15.5522 -0.0216414 15.4337 0.00189967 15.355 0.0806576L13.5926 1.84308C13.5409 1.89471 13.5119 1.96477 13.5119 2.03779V3.09869L7.42406 9.1865C7.31652 9.29404 7.31652 9.46842 7.42406 9.5759C7.47782 9.62966 7.54831 9.65659 7.61877 9.65659C7.68922 9.65659 7.75972 9.62972 7.81347 9.5759L9.05769 8.33171C9.27952 8.63473 9.39952 8.99923 9.39952 9.3812C9.39952 10.3631 8.60065 11.162 7.61873 11.162C6.63682 11.162 5.83795 10.3631 5.83795 9.3812C5.83795 8.39928 6.63682 7.60041 7.61873 7.60041C7.7041 7.60041 7.78983 7.60652 7.87354 7.61848C8.02418 7.64006 8.1636 7.53543 8.18515 7.38489C8.2067 7.23432 8.10211 7.09483 7.95156 7.07328C7.84206 7.05761 7.7301 7.04967 7.61873 7.04967C6.33311 7.04967 5.28721 8.09561 5.28721 9.3812C5.28721 10.6668 6.33314 11.7127 7.61873 11.7127C8.90433 11.7127 9.95026 10.6668 9.95026 9.3812C9.95026 8.85207 9.77409 8.34865 9.45042 7.93895L10.3109 7.07843C10.8608 7.72004 11.1619 8.52994 11.1619 9.3812C11.1619 11.3349 9.57244 12.9244 7.6187 12.9244C5.66496 12.9244 4.07559 11.3349 4.07559 9.3812C4.07559 7.42749 5.66506 5.83799 7.6188 5.83799C7.77087 5.83799 7.89419 5.71471 7.89419 5.5626C7.89419 5.4105 7.77091 5.28721 7.6188 5.28721C5.36138 5.28721 3.52485 7.12378 3.52485 9.38117C3.52485 11.6386 5.36142 13.4751 7.6188 13.4751C9.87619 13.4751 11.7128 11.6386 11.7128 9.38117C11.7128 8.38315 11.3551 7.434 10.7018 6.68756L11.56 5.82942C12.4406 6.80563 12.9244 8.06257 12.9244 9.38117C12.9244 12.3067 10.5443 14.6868 7.61877 14.6868C6.40064 14.6868 5.21087 14.2638 4.26867 13.4955C4.1508 13.3994 3.97731 13.4171 3.88122 13.535C3.78513 13.6529 3.80276 13.8263 3.92066 13.9224C4.96085 14.7705 6.27421 15.2376 7.61877 15.2376C10.848 15.2376 13.4751 12.6104 13.4751 9.3812C13.4751 7.91618 12.9339 6.52021 11.9498 5.43965L12.8074 4.58201C14.0203 5.89208 14.6868 7.59042 14.6868 9.3812C14.6868 13.2785 11.5161 16.4493 7.61873 16.4493C3.72138 16.4493 0.550741 13.2785 0.550741 9.3812C0.550741 5.48388 3.72148 2.31314 7.6188 2.31314C9.11892 2.31314 10.5517 2.77692 11.7623 3.65435C11.8854 3.7436 12.0575 3.71611 12.1468 3.59299C12.2361 3.46984 12.2086 3.29768 12.0855 3.20843C10.7803 2.26241 9.2358 1.7624 7.6188 1.7624C3.41777 1.7624 0 5.18017 0 9.3812C0 13.5822 3.41777 17 7.6188 17C11.8198 17 15.2376 13.5822 15.2376 9.3812C15.2376 7.44376 14.5138 5.60673 13.197 4.19241L13.9013 3.4881H14.9622ZM14.0626 2.15181L15.2743 0.940155V1.45029C15.2743 1.60236 15.3976 1.72568 15.5497 1.72568H16.0598L14.8482 2.93733H14.0626V2.15181Z" fill="black"/>
</svg>
