<svg width="17" height="17" viewBox="0 0 17 17" fill="none" xmlns="http://www.w3.org/2000/svg">
<path d="M8.0954 0H8.90493V15.3003H8.0954V0Z" fill="#37474F"/>
<path d="M9.2355 11.8034L9.80784 12.4044L5.74422 16.6712L5.17188 16.0702L9.2355 11.8034Z" fill="#37474F"/>
<path d="M11.843 16.0753L11.2707 16.6763L7.20703 12.4095L7.77937 11.8085L11.843 16.0753Z" fill="#37474F"/>
<path d="M0.404816 1.27504H16.5955V13.1752H0.404816V1.27504Z" fill="#CFD8DC"/>
<path d="M0 0.84996H17V2.54996H0V0.84996ZM0 12.75H17V13.6H0V12.75Z" fill="#607D8B"/>
<path d="M11.5357 17C11.871 17 12.1429 16.7146 12.1429 16.3625C12.1429 16.0104 11.871 15.725 11.5357 15.725C11.2004 15.725 10.9286 16.0104 10.9286 16.3625C10.9286 16.7146 11.2004 17 11.5357 17Z" fill="#607D8B"/>
<path d="M5.46429 17C5.79961 17 6.07143 16.7146 6.07143 16.3625C6.07143 16.0104 5.79961 15.725 5.46429 15.725C5.12897 15.725 4.85715 16.0104 4.85715 16.3625C4.85715 16.7146 5.12897 17 5.46429 17Z" fill="#607D8B"/>
<path d="M9.30968 8.45767L6.88107 5.90762L3.60245 9.30768L4.49294 10.2427L6.88107 7.69265L9.30968 10.2427L12.5883 6.84264L11.6978 5.90762L9.30968 8.45767Z" fill="#C51162"/>
<path d="M13.3574 8.07513L10.524 5.10008H13.3574V8.07513Z" fill="#C51162"/>
</svg>
