<svg width="29" height="26" viewBox="0 0 29 26" fill="none" xmlns="http://www.w3.org/2000/svg">
<path d="M3.22222 26H9.66667H19.3333H25.7778C27.5548 26 29 24.8339 29 23.4V11.7002C29 11.3557 28.8308 11.0242 28.5279 10.7811L15.6391 0.38122C15.0091 -0.127073 13.9909 -0.127073 13.3609 0.38122L0.472056 10.7811C0.169167 11.0242 0 11.3557 0 11.7002V23.4C0 24.8339 1.44517 26 3.22222 26ZM11.2778 23.4V16.9001H17.7222V23.4H11.2778ZM3.22222 12.2384L14.5 3.13849L25.7778 12.2384L25.7794 23.4H20.9444V16.9001C20.9444 15.4662 19.4993 14.3001 17.7222 14.3001H11.2778C9.50072 14.3001 8.05556 15.4662 8.05556 16.9001V23.4H3.22222V12.2384Z" fill="white"/>
</svg>
