<svg width="17" height="17" viewBox="0 0 17 17" fill="none" xmlns="http://www.w3.org/2000/svg">
<path d="M6.5047 7.41199H6.37203C6.29428 7.07147 6.15874 6.75306 5.9762 6.46757L6.07381 6.36978C6.18631 6.25715 6.18631 6.07444 6.07381 5.96182L5.55529 5.44238C5.44279 5.32968 5.26047 5.32968 5.14797 5.44238L5.04673 5.5438C4.76242 5.36435 4.44585 5.23159 4.10767 5.15598V5.01066C4.10767 4.85134 3.97877 4.72214 3.81965 4.72214H3.0864C2.92736 4.72214 2.79839 4.85134 2.79839 5.01066V5.15598C2.61917 5.20434 2.14371 5.36435 1.85932 5.5438L1.75808 5.44238C1.64558 5.32968 1.46327 5.32968 1.35077 5.44238L0.832241 5.96182C0.719741 6.07452 0.719741 6.25715 0.832241 6.36978L0.929857 6.46757C0.747318 6.75298 0.611774 7.07147 0.533953 7.41199H0.401355C0.242313 7.41199 0.113342 7.54112 0.113342 7.70051V8.43513C0.113342 8.59446 0.242238 8.72366 0.401355 8.72366H0.527153C0.601951 9.06834 0.735833 9.39099 0.917692 9.68027L0.832241 9.7658C0.719741 9.87849 0.719741 10.0611 0.832241 10.1738L1.35077 10.6933C1.46327 10.806 1.64558 10.806 1.75808 10.6933L1.83983 10.6114C2.12913 10.797 2.4525 10.9341 2.79839 11.0114V11.1249C2.79839 11.2842 2.92728 11.4134 3.0864 11.4134H3.81965C3.9787 11.4134 4.10767 11.2842 4.10767 11.1249V11.0114C4.45355 10.9341 4.77693 10.797 5.06622 10.6114L5.14797 10.6933C5.26047 10.806 5.44279 10.806 5.55529 10.6933L6.07381 10.1738C6.18631 10.0611 6.18631 9.87849 6.07381 9.7658L5.98836 9.68027C6.1703 9.39099 6.30418 9.06841 6.3789 8.72366H6.5047C6.66374 8.72366 6.79271 8.59446 6.79271 8.43513V7.70051C6.79264 7.54119 6.66374 7.41199 6.5047 7.41199ZM3.45299 9.56765C2.62612 9.56765 1.95581 8.89615 1.95581 8.06782C1.95581 7.2395 2.62612 6.568 3.45299 6.568C4.27986 6.568 4.95025 7.2395 4.95025 8.06782C4.95025 8.89615 4.27993 9.56765 3.45299 9.56765Z" fill="#8AC5DC"/>
<path d="M6.50469 7.29846H6.46102C6.38675 7.01176 6.27221 6.73868 6.11982 6.48421L6.15389 6.45008C6.31036 6.29333 6.31036 6.03834 6.15389 5.88159L5.63536 5.36215C5.47896 5.2054 5.22435 5.20532 5.06772 5.36215L5.02957 5.40045C4.77646 5.25081 4.5053 5.1388 4.22099 5.06644V5.01073C4.22099 4.78904 4.04094 4.60868 3.81957 4.60868H3.08631C2.86502 4.60868 2.68497 4.78904 2.68497 5.01073V5.07075C2.4979 5.12782 2.14362 5.25104 1.87714 5.4012L1.83808 5.36207C1.68169 5.20532 1.42714 5.2054 1.27052 5.36207L0.752067 5.88152C0.67621 5.95743 0.634429 6.0584 0.634429 6.1658C0.634429 6.2732 0.67621 6.37417 0.752067 6.45008L0.786142 6.48421C0.633749 6.73852 0.51936 7.0116 0.444939 7.29846H0.401344C0.180046 7.29846 0 7.47882 0 7.70051V8.43513C0 8.65682 0.180046 8.83719 0.401344 8.83719H0.437232C0.509311 9.12775 0.622491 9.40484 0.774582 9.66309L0.752218 9.68549C0.676361 9.7614 0.63458 9.86237 0.63458 9.96977C0.63458 10.0772 0.676361 10.1781 0.752218 10.2541L1.27067 10.7735C1.34653 10.8494 1.44732 10.8913 1.55445 10.8913C1.66166 10.8913 1.76245 10.8494 1.83823 10.7735L1.85644 10.7553C2.11506 10.9107 2.3931 11.0267 2.68512 11.101V11.1249C2.68512 11.3466 2.86517 11.527 3.08647 11.527H3.81972C4.04109 11.527 4.22114 11.3466 4.22114 11.1249V11.101C4.51316 11.0267 4.79119 10.9107 5.04974 10.7553L5.06795 10.7735C5.14373 10.8494 5.24452 10.8913 5.35173 10.8913C5.45894 10.8913 5.55973 10.8494 5.63551 10.7735L6.15404 10.2541C6.31051 10.0973 6.31051 9.84231 6.15404 9.68549L6.1316 9.66309C6.28384 9.40469 6.39702 9.1276 6.46895 8.83719H6.50484C6.72614 8.83719 6.90618 8.65682 6.90618 8.43513V7.70051C6.90596 7.47882 6.72599 7.29846 6.50469 7.29846ZM6.67929 8.43513C6.67929 8.53156 6.60094 8.61012 6.50461 8.61012H6.37882C6.32547 8.61012 6.27939 8.64736 6.26805 8.69959C6.19718 9.02633 6.07086 9.33597 5.89232 9.61979C5.86414 9.66468 5.87071 9.72311 5.90811 9.76057L5.99356 9.8461C6.06164 9.91429 6.06164 10.0253 5.99356 10.0936L5.47504 10.613C5.40908 10.6791 5.29401 10.6791 5.22797 10.613L5.14622 10.5311C5.10875 10.4935 5.05004 10.487 5.00494 10.5158C4.72146 10.6977 4.41131 10.8272 4.08295 10.9006C4.03104 10.9122 3.99425 10.9582 3.99425 11.0114V11.1249C3.99425 11.2213 3.9159 11.2999 3.81949 11.2999H3.08624C2.98998 11.2999 2.91156 11.2214 2.91156 11.1249V11.0114C2.91156 10.9582 2.87476 10.9122 2.82286 10.9006C2.49457 10.8272 2.18435 10.6977 1.90079 10.5158C1.88198 10.5037 1.86075 10.4978 1.83967 10.4978C1.81035 10.4978 1.78134 10.5092 1.75943 10.5311L1.67768 10.613C1.61172 10.679 1.49665 10.679 1.43062 10.613L0.912166 10.0935C0.879149 10.0604 0.86094 10.0165 0.86094 9.96985C0.86094 9.92315 0.879149 9.87917 0.912166 9.84617L0.997618 9.76065C1.03502 9.72311 1.04159 9.66468 1.01341 9.61979C0.835025 9.33619 0.708623 9.02663 0.637602 8.69959C0.626269 8.64744 0.580181 8.6102 0.52684 8.6102H0.401344C0.305088 8.6102 0.226663 8.53171 0.226663 8.43521V7.70059C0.226663 7.60416 0.305012 7.5256 0.401344 7.5256H0.534093C0.586905 7.5256 0.632842 7.48904 0.644553 7.43735C0.718445 7.11409 0.846509 6.80838 1.02535 6.52895C1.05413 6.48399 1.04779 6.4251 1.01008 6.38741L0.912468 6.28962C0.879451 6.25655 0.861242 6.21265 0.861242 6.16595C0.861242 6.11925 0.879451 6.07535 0.912468 6.04228L1.43092 5.52283C1.49907 5.45464 1.60991 5.45464 1.67798 5.52283L1.7793 5.62433C1.81663 5.6618 1.8751 5.66838 1.91983 5.64007C2.19017 5.46947 2.6484 5.31424 2.82792 5.2658C2.87741 5.25248 2.91178 5.20752 2.91178 5.1562V5.01088C2.91178 4.91446 2.99013 4.83589 3.08647 4.83589H3.81972C3.91605 4.83589 3.99448 4.91438 3.99448 5.01088V5.1562C3.99448 5.20941 4.03127 5.25543 4.08318 5.26701C4.40383 5.33869 4.70778 5.46418 4.98643 5.64007C5.03131 5.66846 5.08963 5.6618 5.12703 5.62425L5.2282 5.52283C5.29416 5.45676 5.40923 5.45676 5.47526 5.52283L5.99379 6.04228C6.02681 6.07535 6.04494 6.11925 6.04494 6.16595C6.04494 6.21272 6.02681 6.25662 5.99379 6.2897L5.89618 6.38749C5.85855 6.42518 5.85213 6.48406 5.88091 6.52902C6.05975 6.80876 6.18789 7.11439 6.26171 7.4375C6.27342 7.48912 6.31935 7.52575 6.37217 7.52575H6.50484C6.6011 7.52575 6.67952 7.60424 6.67952 7.70074V8.43513H6.67929ZM3.45298 6.45447C2.56491 6.45447 1.84246 7.17827 1.84246 8.06782C1.84246 8.95745 2.56499 9.68118 3.45298 9.68118C4.34097 9.68118 5.06349 8.95738 5.06349 8.06782C5.06357 7.17819 4.34104 6.45447 3.45298 6.45447ZM3.45298 9.45411C2.68988 9.45411 2.06913 8.83219 2.06913 8.06782C2.06913 7.30346 2.68996 6.68153 3.45298 6.68153C4.216 6.68153 4.83683 7.30338 4.83683 8.06782C4.83683 8.83227 4.21608 9.45411 3.45298 9.45411Z" fill="#3A312A"/>
<path d="M11.9682 12.8851H11.8355C11.7578 12.5446 11.6222 12.2262 11.4397 11.9408L11.5373 11.843C11.6498 11.7303 11.6498 11.5476 11.5373 11.4349L11.0188 10.9155C10.9063 10.8028 10.724 10.8028 10.6115 10.9155L10.5103 11.0169C10.226 10.8375 9.90941 10.7047 9.57123 10.6292V10.4838C9.57123 10.3245 9.44226 10.1953 9.28321 10.1953H8.54989C8.39084 10.1953 8.26187 10.3245 8.26187 10.4838V10.6292C8.08266 10.6775 7.6072 10.8375 7.32281 11.0169L7.22157 10.9155C7.10907 10.8028 6.92675 10.8028 6.81425 10.9155L6.29573 11.4349C6.18323 11.5476 6.18323 11.7303 6.29573 11.843L6.39334 11.9408C6.2108 12.2262 6.07526 12.5447 5.99744 12.8851H5.86476C5.70572 12.8851 5.57675 13.0143 5.57675 13.1736V13.9082C5.57675 14.0676 5.70565 14.1968 5.86476 14.1968H5.99049C6.06529 14.5415 6.19917 14.8641 6.38103 15.1534L6.29557 15.239C6.18307 15.3516 6.18307 15.5343 6.29557 15.647L6.8141 16.1665C6.9266 16.2792 7.10892 16.2792 7.22142 16.1665L7.30317 16.0846C7.59246 16.2702 7.91583 16.4073 8.26172 16.4846V16.5981C8.26172 16.7574 8.39069 16.8866 8.54973 16.8866H9.28306C9.44211 16.8866 9.57108 16.7574 9.57108 16.5981V16.4846C9.91696 16.4073 10.2403 16.2702 10.5296 16.0846L10.6114 16.1665C10.7239 16.2792 10.9062 16.2792 11.0186 16.1665L11.5371 15.647C11.6496 15.5343 11.6496 15.3517 11.5371 15.239L11.4518 15.1534C11.6337 14.8641 11.7675 14.5415 11.8423 14.1968H11.9681C12.1272 14.1968 12.2561 14.0676 12.2561 13.9082V13.1736C12.2561 13.0143 12.1272 12.8851 11.9682 12.8851ZM8.91647 15.0408C8.08961 15.0408 7.41929 14.3693 7.41929 13.5409C7.41929 12.7126 8.08961 12.0411 8.91647 12.0411C9.4483 12.0411 9.91417 12.3197 10.1798 12.7383L10.392 13.7865C10.2747 14.4977 9.6597 15.0408 8.91647 15.0408Z" fill="#D6DF58"/>
<path d="M10.4103 13.6744C10.348 13.6639 10.2903 13.706 10.28 13.7679C10.1694 14.4396 9.59583 14.9272 8.91637 14.9272C8.15327 14.9272 7.5326 14.3053 7.5326 13.5409C7.5326 12.7766 8.15335 12.1546 8.91637 12.1546C9.39146 12.1546 9.82793 12.3956 10.0841 12.7992C10.1175 12.8522 10.1878 12.8677 10.2405 12.8341C10.2933 12.8004 10.3088 12.7302 10.2753 12.6773C9.97746 12.2079 9.46935 11.9275 8.91637 11.9275C8.02838 11.9275 7.30593 12.6513 7.30593 13.5409C7.30593 14.4304 8.02846 15.1542 8.91637 15.1542C9.70735 15.1542 10.3749 14.5867 10.5037 13.8048C10.5139 13.743 10.4721 13.6846 10.4103 13.6744ZM11.9681 12.7716H11.9244C11.8501 12.4849 11.7357 12.2118 11.5832 11.9574L11.6173 11.9233C11.7738 11.7665 11.7738 11.5115 11.6173 11.3547L11.0988 10.8353C11.023 10.7593 10.9222 10.7175 10.8151 10.7175C10.7078 10.7175 10.607 10.7593 10.5313 10.8353L10.493 10.8736C10.2398 10.7239 9.96862 10.6119 9.68438 10.5396V10.4839C9.68438 10.2622 9.50434 10.0819 9.28304 10.0819H8.54971C8.32841 10.0819 8.14836 10.2622 8.14836 10.4839V10.5439C7.96129 10.601 7.60709 10.7242 7.34061 10.8744L7.30155 10.8353C7.2257 10.7593 7.12491 10.7175 7.01777 10.7175C6.91056 10.7175 6.80977 10.7593 6.73399 10.8353L6.21546 11.3547C6.05899 11.5115 6.05899 11.7665 6.21546 11.9233L6.24953 11.9574C6.09707 12.2118 5.98268 12.4849 5.90833 12.7716H5.86466C5.64336 12.7716 5.46332 12.9519 5.46332 13.1736V13.9082C5.46332 14.1299 5.64336 14.3102 5.86466 14.3102H5.90047C5.97255 14.6009 6.08573 14.878 6.23782 15.1362L6.21546 15.1586C6.05899 15.3154 6.05899 15.5703 6.21546 15.7272L6.73399 16.2466C6.80977 16.3225 6.91056 16.3644 7.01777 16.3644C7.12491 16.3644 7.2257 16.3225 7.30155 16.2466L7.31976 16.2284C7.57831 16.3838 7.85627 16.4998 8.14836 16.574V16.598C8.14836 16.8197 8.32841 17 8.54971 17H9.28304C9.50434 17 9.68438 16.8197 9.68438 16.598V16.574C9.97647 16.4998 10.2545 16.3838 10.513 16.2283L10.5313 16.2466C10.607 16.3225 10.7078 16.3644 10.8151 16.3644C10.9222 16.3644 11.023 16.3225 11.0988 16.2466L11.6173 15.7272C11.7738 15.5704 11.7738 15.3154 11.6173 15.1586L11.5949 15.1362C11.747 14.878 11.8602 14.6009 11.9323 14.3102H11.9681C12.1894 14.3102 12.3694 14.1299 12.3694 13.9082V13.1736C12.3694 12.9519 12.1894 12.7716 11.9681 12.7716ZM12.1428 13.9082C12.1428 14.0047 12.0644 14.0832 11.9681 14.0832H11.8424C11.789 14.0832 11.743 14.1204 11.7316 14.1725C11.6607 14.4996 11.5343 14.8092 11.3558 15.0928C11.3276 15.1376 11.3342 15.1961 11.3716 15.2336L11.457 15.3191C11.5251 15.3873 11.5251 15.4984 11.457 15.5666L10.9385 16.0861C10.8725 16.1522 10.7575 16.1522 10.6915 16.0861L10.6097 16.0042C10.5721 15.9665 10.5135 15.9601 10.4684 15.9889C10.185 16.1708 9.87478 16.3004 9.54642 16.3737C9.49451 16.3853 9.45772 16.4313 9.45772 16.4845V16.5981C9.45772 16.6945 9.37937 16.773 9.28304 16.773H8.54971C8.45345 16.773 8.37503 16.6945 8.37503 16.5981V16.4845C8.37503 16.4313 8.33823 16.3853 8.28633 16.3737C7.95797 16.3004 7.64774 16.1708 7.36434 15.9889C7.34552 15.9769 7.32429 15.971 7.30321 15.971C7.2739 15.971 7.24489 15.9823 7.22298 16.0042L7.14123 16.0861C7.07527 16.1522 6.9602 16.1522 6.89416 16.0861L6.37564 15.5666C6.30756 15.4984 6.30756 15.3874 6.37564 15.3192L6.46109 15.2337C6.49849 15.1961 6.50506 15.1377 6.47688 15.0928C6.29849 14.8092 6.17209 14.4997 6.10107 14.1726C6.08974 14.1205 6.04365 14.0832 5.99031 14.0832H5.86459C5.76833 14.0832 5.68991 14.0047 5.68991 13.9083V13.1737C5.68991 13.0773 5.76826 12.9987 5.86459 12.9987H5.99726C6.05007 12.9987 6.09601 12.9622 6.10772 12.9105C6.18154 12.5874 6.30968 12.2817 6.48851 12.0021C6.5173 11.9572 6.51088 11.8982 6.47325 11.8605L6.37564 11.7627C6.30756 11.6945 6.30756 11.5835 6.37564 11.5152L6.89416 10.9958C6.96012 10.9297 7.07519 10.9297 7.14123 10.9958L7.24247 11.0972C7.27979 11.1347 7.33812 11.1413 7.383 11.113C7.65341 10.9424 8.11157 10.7872 8.29109 10.7388C8.34057 10.7254 8.37495 10.6805 8.37495 10.6292V10.4838C8.37495 10.3874 8.4533 10.3089 8.54963 10.3089H9.28296C9.37922 10.3089 9.45764 10.3873 9.45764 10.4838V10.6292C9.45764 10.6824 9.49444 10.7284 9.54634 10.74C9.86692 10.8116 10.1709 10.9371 10.4496 11.113C10.4945 11.1413 10.5528 11.1348 10.5901 11.0973L10.6914 10.9958C10.7574 10.9298 10.8725 10.9296 10.9384 10.9958L11.457 11.5152C11.525 11.5834 11.525 11.6945 11.457 11.7627L11.3593 11.8605C11.3217 11.8982 11.3153 11.9571 11.3441 12.0021C11.5229 12.2818 11.6511 12.5874 11.7249 12.9105C11.7366 12.9621 11.7825 12.9987 11.8353 12.9987H11.968C12.0643 12.9987 12.1427 13.0772 12.1427 13.1737V13.9082H12.1428Z" fill="#3A312A"/>
<path d="M16.4436 4.25139H16.2395C16.1199 3.72755 15.9113 3.23763 15.6306 2.79849L15.7807 2.6481C15.9537 2.47477 15.9537 2.19375 15.7807 2.02042L14.983 1.22131C14.81 1.04799 14.5295 1.04799 14.3564 1.22131L14.2006 1.37738C13.7632 1.10135 13.2762 0.896995 12.756 0.780739V0.557158C12.756 0.312082 12.5576 0.113327 12.3129 0.113327H11.1848C10.9401 0.113327 10.7418 0.312082 10.7418 0.557158V0.780739C10.4661 0.855139 9.73456 1.10127 9.29717 1.37738L9.14138 1.22131C8.96836 1.04799 8.68783 1.04799 8.51481 1.22131L7.71711 2.02042C7.54409 2.19375 7.54409 2.47477 7.71711 2.6481L7.86731 2.79849C7.58647 3.23763 7.37794 3.72748 7.25827 4.25139H7.05419C6.80947 4.25139 6.61115 4.45006 6.61115 4.69522V5.8253C6.61115 6.07046 6.80947 6.26914 7.05419 6.26914H7.24769C7.36276 6.79948 7.56872 7.29568 7.84857 7.74073L7.71711 7.87235C7.54409 8.04567 7.54409 8.3267 7.71711 8.50002L8.51481 9.29913C8.68783 9.47245 8.96836 9.47245 9.14138 9.29913L9.2671 9.17311C9.71219 9.45875 10.2096 9.66954 10.7418 9.78845V9.96314C10.7418 10.2082 10.9402 10.407 11.1848 10.407H12.3129C12.5576 10.407 12.756 10.2083 12.756 9.96314V9.78845C13.288 9.66954 13.7855 9.45875 14.2306 9.17311L14.3564 9.29913C14.5295 9.47245 14.81 9.47245 14.983 9.29913L15.7807 8.50002C15.9537 8.3267 15.9537 8.04567 15.7807 7.87235L15.6493 7.74073C15.9292 7.29568 16.1351 6.7994 16.2502 6.26914H16.4437C16.6884 6.26914 16.8867 6.07046 16.8867 5.8253V4.69522C16.8867 4.45006 16.6883 4.25139 16.4436 4.25139ZM11.7488 7.5677C10.4767 7.5677 9.44549 6.53465 9.44549 5.2603C9.44549 4.57805 9.7412 3.96521 10.2111 3.5428L11.1117 3.04304C11.3141 2.98476 11.5277 2.95289 11.7488 2.95289C13.0209 2.95289 14.0521 3.98595 14.0521 5.2603C14.0522 6.53457 13.0209 7.5677 11.7488 7.5677Z" fill="#EF6D7A"/>
<path d="M16.4436 4.13806H16.3289C16.2127 3.67054 16.0266 3.2264 15.7745 2.81504L15.8608 2.72853C15.9659 2.62325 16.0238 2.4833 16.0238 2.33443C16.0238 2.18555 15.9658 2.0456 15.8608 1.94032L15.0631 1.14121C14.958 1.03593 14.8183 0.977957 14.6697 0.977957C14.5211 0.977957 14.3814 1.03593 14.2763 1.14121L14.1838 1.23378C13.7745 0.986207 13.3331 0.803952 12.8693 0.690875V0.557362C12.8693 0.249995 12.6197 0 12.3129 0H11.1848C10.8779 0 10.6284 0.249995 10.6284 0.557362V0.695113C10.318 0.786771 9.72196 0.997258 9.31442 1.23439L9.22141 1.14121C9.11631 1.03593 8.97661 0.977957 8.828 0.977957C8.67938 0.977957 8.53968 1.03593 8.43459 1.14121L7.63689 1.94032C7.53179 2.0456 7.47392 2.18555 7.47392 2.33443C7.47392 2.4833 7.53187 2.62325 7.63689 2.72853L7.72325 2.81504C7.47112 3.2264 7.28496 3.67054 7.16875 4.13806H7.05406C6.74724 4.13806 6.49768 4.38805 6.49768 4.69542V5.82558C6.49768 6.13295 6.74731 6.38295 7.05406 6.38295H7.15704C7.26947 6.85645 7.45344 7.30686 7.70489 7.72428L7.63689 7.7924C7.41997 8.0097 7.41997 8.36331 7.63689 8.58068L8.43459 9.37979C8.53968 9.48507 8.67938 9.54305 8.828 9.54305C8.97661 9.54305 9.11631 9.48507 9.22141 9.37979L9.28329 9.3178C9.7008 9.57453 10.1525 9.763 10.6284 9.87902V9.96364C10.6284 10.271 10.878 10.521 11.1848 10.521H12.3129C12.6198 10.521 12.8693 10.271 12.8693 9.96364V9.87902C13.3452 9.763 13.7969 9.57453 14.2144 9.3178L14.2763 9.37979C14.3814 9.48507 14.5211 9.54305 14.6697 9.54305C14.8183 9.54305 14.958 9.48507 15.0631 9.37979L15.8608 8.58068C16.0777 8.36338 16.0777 8.00977 15.8608 7.7924L15.7928 7.72428C16.0443 7.30686 16.2282 6.85652 16.3407 6.38295H16.4436C16.7505 6.38295 17 6.13295 17 5.82558V4.69534C17 4.38805 16.7504 4.13806 16.4436 4.13806ZM16.7734 5.82551C16.7734 6.00761 16.6254 6.15581 16.4436 6.15581H16.2501C16.1968 6.15581 16.1508 6.19305 16.1394 6.2452C16.0287 6.75518 15.8316 7.23806 15.5533 7.68046C15.5251 7.72534 15.5317 7.78377 15.5691 7.82123L15.7005 7.95278C15.829 8.0816 15.829 8.29118 15.7005 8.41992L14.9028 9.21903C14.8405 9.2814 14.7577 9.31576 14.6696 9.31576C14.5815 9.31576 14.4987 9.2814 14.4365 9.21895L14.3107 9.09301C14.273 9.05539 14.2145 9.04888 14.1694 9.07772C13.7274 9.36147 13.2435 9.56341 12.7312 9.67792C12.6794 9.6895 12.6426 9.73552 12.6426 9.78873V9.96342C12.6426 10.1455 12.4946 10.2937 12.3129 10.2937H11.1847C11.0029 10.2937 10.855 10.1455 10.855 9.96342V9.78873C10.855 9.73552 10.8182 9.6895 10.7663 9.67792C10.254 9.56341 9.77008 9.36147 9.32817 9.07772C9.30936 9.06569 9.28812 9.05978 9.26704 9.05978C9.23773 9.05978 9.20879 9.07106 9.18681 9.09301L9.06101 9.21903C8.99875 9.2814 8.91594 9.31576 8.82785 9.31576C8.73975 9.31576 8.65694 9.2814 8.59469 9.21903L7.79699 8.41992C7.66847 8.2911 7.66847 8.08152 7.79699 7.95278L7.92838 7.82116C7.96577 7.78362 7.97235 7.72519 7.94417 7.68038C7.6659 7.23799 7.46878 6.75503 7.35809 6.24512C7.34676 6.19297 7.30067 6.15573 7.24733 6.15573H7.05384C6.87205 6.15573 6.72412 6.00754 6.72412 5.82543V4.69534C6.72412 4.51324 6.87205 4.36504 7.05384 4.36504H7.25791C7.31072 4.36504 7.35658 4.32849 7.36837 4.27679C7.48351 3.77287 7.68335 3.29611 7.9623 2.85985C7.99109 2.81497 7.98466 2.75601 7.94704 2.71831L7.79691 2.56792C7.73465 2.50556 7.70035 2.4226 7.70035 2.33435C7.70035 2.2461 7.73465 2.16322 7.79691 2.10086L8.59461 1.30175C8.65687 1.23938 8.73968 1.20502 8.82777 1.20502C8.91587 1.20502 8.99868 1.23938 9.06093 1.30175L9.2168 1.45782C9.25412 1.49536 9.3126 1.50194 9.35733 1.47356C9.77908 1.20737 10.4919 0.965847 10.771 0.890538C10.8204 0.877217 10.8548 0.832259 10.8548 0.780943V0.557362C10.8548 0.375258 11.0028 0.227062 11.1845 0.227062H12.3127C12.4945 0.227062 12.6424 0.375258 12.6424 0.557362V0.780943C12.6424 0.834151 12.6792 0.880169 12.7311 0.891749C13.2314 1.00354 13.7054 1.19927 14.1399 1.47363C14.1847 1.50194 14.2431 1.49536 14.2804 1.45789L14.4363 1.30182C14.4986 1.23946 14.5814 1.2051 14.6695 1.2051C14.7576 1.2051 14.8404 1.23946 14.9026 1.30182L15.7003 2.10093C15.7626 2.1633 15.7969 2.24625 15.7969 2.33443C15.7969 2.4226 15.7626 2.50563 15.7003 2.568L15.5502 2.71839C15.5126 2.75608 15.5062 2.81497 15.5349 2.85992C15.8139 3.29619 16.0137 3.77294 16.1289 4.27687C16.1407 4.32849 16.1865 4.36512 16.2393 4.36512H16.4434C16.6252 4.36512 16.7731 4.51332 16.7731 4.69542V5.82551H16.7734ZM11.7488 2.83949C11.5234 2.83949 11.2985 2.87128 11.0804 2.93402C11.0203 2.95136 10.9855 3.01425 11.0028 3.0745C11.0201 3.13482 11.083 3.16934 11.143 3.15231C11.3406 3.09539 11.5445 3.06655 11.7488 3.06655C12.9564 3.06655 13.9389 4.05071 13.9389 5.26043C13.9389 6.47014 12.9564 7.45438 11.7488 7.45438C10.5413 7.45438 9.55884 6.47021 9.55884 5.2605C9.55884 4.63865 9.82418 4.04345 10.2869 3.62747C10.3334 3.58562 10.3373 3.51386 10.2955 3.46716C10.2538 3.42054 10.1821 3.41653 10.1355 3.45854C9.62494 3.9175 9.33217 4.57432 9.33217 5.2605C9.33217 6.5954 10.4163 7.68144 11.7488 7.68144C13.0814 7.68144 14.1655 6.5954 14.1655 5.2605C14.1655 3.9256 13.0815 2.83949 11.7488 2.83949Z" fill="#3A312A"/>
<path d="M15.5357 2.86091C15.5067 2.81557 15.5123 2.75646 15.5503 2.71839L15.6913 2.57723C15.7455 2.52297 15.7849 2.45364 15.7944 2.37757C15.8074 2.27365 15.7728 2.17336 15.7005 2.10093L14.912 1.31098C14.8578 1.25671 14.7886 1.21728 14.7127 1.20774C14.6089 1.19465 14.5089 1.22932 14.4365 1.30182L14.2806 1.45789C14.2429 1.49574 14.1843 1.50156 14.1391 1.47303C13.7119 1.20358 13.2465 1.01043 12.7559 0.897881V1.46122C12.7559 1.54864 12.811 1.62773 12.8942 1.65422C14.0666 2.02759 14.9906 2.95839 15.3562 4.13586C15.3822 4.2198 15.4616 4.27558 15.5493 4.27558H16.1287C16.0137 3.77264 15.8142 3.29664 15.5357 2.86091Z" fill="#D34E5C"/>
<path d="M15.5691 7.82124C15.5313 7.78339 15.5255 7.72474 15.554 7.67948C15.8217 7.25351 16.0133 6.78992 16.1259 6.30113H15.5291C15.4425 6.30113 15.3639 6.35563 15.337 6.43805C14.9604 7.59001 14.0486 8.49879 12.8943 8.86656C12.8111 8.89305 12.7559 8.97214 12.7559 9.05956V9.67187C13.2585 9.55652 13.7336 9.35731 14.1685 9.07841C14.2137 9.04942 14.2727 9.05502 14.3107 9.09309L14.4275 9.20995C14.4816 9.26414 14.5508 9.30358 14.6268 9.31311C14.7306 9.32613 14.8305 9.29147 14.9028 9.21903L15.6913 8.42916C15.7455 8.37489 15.7849 8.30549 15.7944 8.22935C15.8074 8.12543 15.7728 8.02529 15.7005 7.95278L15.5691 7.82124Z" fill="#D34E5C"/>
</svg>
