<svg width="15" height="15" viewBox="0 0 15 15" fill="none" xmlns="http://www.w3.org/2000/svg">
<path d="M3.375 15H15V0H3.375V15Z" fill="url(#paint0_linear_42_42)"/>
<path d="M0.75 15V0H3.75V15H0.75Z" fill="url(#paint1_linear_42_42)"/>
<path d="M3.375 15L3.375 0H3.75L3.75 15H3.375Z" fill="#DD7107"/>
<path d="M1.125 1.125V4.5H1.5V1.125H1.125ZM1.125 10.5V13.875H1.5V10.5H1.125Z" fill="#F7800C"/>
<path d="M0 13.5L0 10.875H1.5L1.5 13.5H0Z" fill="url(#paint2_linear_42_42)"/>
<path d="M0 4.125L0 1.5H1.5L1.5 4.125H0Z" fill="url(#paint3_linear_42_42)"/>
<path opacity="0.2" fill-rule="evenodd" clip-rule="evenodd" d="M1.5 10.875L3.75 13.125V15H3L1.5 13.5V10.875Z" fill="url(#paint4_linear_42_42)"/>
<path opacity="0.2" fill-rule="evenodd" clip-rule="evenodd" d="M1.5 1.5L3.75 3.75V6.375L1.5 4.125V1.5Z" fill="url(#paint5_linear_42_42)"/>
<path d="M5.25 1.5V3.75H7.5V1.5H5.25ZM5.625 1.875H7.125V3.375H5.625V1.875Z" fill="#DD7107"/>
<path d="M5.25 11.25V13.5H7.5V11.25H5.25ZM5.625 11.625H7.125V13.125H5.625V11.625Z" fill="#DA4453"/>
<path d="M5.25 6.375V8.625H7.5V6.375H5.25ZM5.625 6.75H7.125V8.25H5.625V6.75Z" fill="#27AE60"/>
<path d="M13.7388 10.6648L10.875 13.5L9.78369 12.4197L9.51123 12.6899L10.6018 13.7695L10.875 14.0398L11.2837 13.6348L14.0112 10.9351L13.7388 10.6648Z" fill="#4D4D4D" fill-opacity="0.866667"/>
<defs>
<linearGradient id="paint0_linear_42_42" x1="0.75" y1="1.89629e-07" x2="15" y2="15" gradientUnits="userSpaceOnUse">
<stop stop-color="#D8DCDE"/>
<stop offset="1" stop-color="#F9FAFB"/>
</linearGradient>
<linearGradient id="paint1_linear_42_42" x1="3.67472" y1="9.37425" x2="0.674874" y2="9.35754" gradientUnits="userSpaceOnUse">
<stop stop-color="#F67400"/>
<stop offset="1" stop-color="#FDBC4B"/>
</linearGradient>
<linearGradient id="paint2_linear_42_42" x1="1.5" y1="16.125" x2="0" y2="16.125" gradientUnits="userSpaceOnUse">
<stop stop-color="#2F3943"/>
<stop offset="1" stop-color="#4D5662"/>
</linearGradient>
<linearGradient id="paint3_linear_42_42" x1="1.5" y1="6.75" x2="1.46822" y2="6.95975" gradientUnits="userSpaceOnUse">
<stop stop-color="#2F3943"/>
<stop offset="1" stop-color="#4D5662"/>
</linearGradient>
<linearGradient id="paint4_linear_42_42" x1="1.5" y1="10.875" x2="5.625" y2="15" gradientUnits="userSpaceOnUse">
<stop/>
<stop offset="1" stop-opacity="0"/>
</linearGradient>
<linearGradient id="paint5_linear_42_42" x1="1.5" y1="1.5" x2="5.625" y2="5.625" gradientUnits="userSpaceOnUse">
<stop/>
<stop offset="1" stop-opacity="0"/>
</linearGradient>
</defs>
</svg>
